<svg width="16" height="18" viewBox="0 0 16 18" fill="none" xmlns="http://www.w3.org/2000/svg">
<mask id="path-1-outside-1" maskUnits="userSpaceOnUse" x="0" y="0" width="16" height="18" fill="black">
<rect fill="white" width="16" height="18"/>
<path d="M13.6132 4.11394L11.5887 3.72282H11.5887C11.0771 3.62395 10.7058 3.16895 10.7058 2.64082V1.79243C10.7058 1.35545 10.3552 1 9.92428 1H6.74244C6.31152 1 5.96096 1.3555 5.96096 1.79243V2.64082C5.96096 3.1689 5.58965 3.6239 5.07812 3.72282L3.05344 4.11394C1.78939 4.35821 0.90978 5.52343 1.00739 6.82444L1.71591 16.2678C1.74681 16.6784 2.08909 17 2.4952 17H14.1715C14.5777 17 14.92 16.6783 14.9508 16.2678L15.6593 6.82444C15.7569 5.52343 14.8773 4.35821 13.6132 4.11394ZM14.8798 6.76431L14.1715 16.2075H12.4636L12.0862 14.3764L13.4033 8.53411C13.4514 8.3208 13.3197 8.10823 13.1093 8.05951C12.8989 8.01058 12.6893 8.14421 12.6412 8.35758L11.3051 14.2843C11.2925 14.34 11.292 14.3978 11.3035 14.4537L11.665 16.2075L5.00156 16.2076L5.36307 14.4537C5.37459 14.3978 5.37407 14.34 5.36151 14.2843L4.02534 8.35758C3.97724 8.14421 3.76785 8.01069 3.55726 8.05951C3.34683 8.10828 3.21525 8.3208 3.26329 8.53411L4.58039 14.3764L4.20294 16.2076H2.49531L1.78684 6.76431C1.7194 5.86588 2.32683 5.06124 3.19972 4.89247L5.2244 4.50135C6.10411 4.33132 6.74265 3.54887 6.74265 2.64082L6.74244 1.79259L9.92408 1.79243V2.64082C9.92408 3.54892 10.5626 4.33132 11.4424 4.50135L13.467 4.89247C14.3398 5.06119 14.9473 5.86588 14.8798 6.76431Z"/>
</mask>
<path d="M13.6132 4.11394L11.5887 3.72282H11.5887C11.0771 3.62395 10.7058 3.16895 10.7058 2.64082V1.79243C10.7058 1.35545 10.3552 1 9.92428 1H6.74244C6.31152 1 5.96096 1.3555 5.96096 1.79243V2.64082C5.96096 3.1689 5.58965 3.6239 5.07812 3.72282L3.05344 4.11394C1.78939 4.35821 0.90978 5.52343 1.00739 6.82444L1.71591 16.2678C1.74681 16.6784 2.08909 17 2.4952 17H14.1715C14.5777 17 14.92 16.6783 14.9508 16.2678L15.6593 6.82444C15.7569 5.52343 14.8773 4.35821 13.6132 4.11394ZM14.8798 6.76431L14.1715 16.2075H12.4636L12.0862 14.3764L13.4033 8.53411C13.4514 8.3208 13.3197 8.10823 13.1093 8.05951C12.8989 8.01058 12.6893 8.14421 12.6412 8.35758L11.3051 14.2843C11.2925 14.34 11.292 14.3978 11.3035 14.4537L11.665 16.2075L5.00156 16.2076L5.36307 14.4537C5.37459 14.3978 5.37407 14.34 5.36151 14.2843L4.02534 8.35758C3.97724 8.14421 3.76785 8.01069 3.55726 8.05951C3.34683 8.10828 3.21525 8.3208 3.26329 8.53411L4.58039 14.3764L4.20294 16.2076H2.49531L1.78684 6.76431C1.7194 5.86588 2.32683 5.06124 3.19972 4.89247L5.2244 4.50135C6.10411 4.33132 6.74265 3.54887 6.74265 2.64082L6.74244 1.79259L9.92408 1.79243V2.64082C9.92408 3.54892 10.5626 4.33132 11.4424 4.50135L13.467 4.89247C14.3398 5.06119 14.9473 5.86588 14.8798 6.76431Z" fill="#848484"/>
<path d="M13.6132 4.11394L11.5887 3.72282H11.5887C11.0771 3.62395 10.7058 3.16895 10.7058 2.64082V1.79243C10.7058 1.35545 10.3552 1 9.92428 1H6.74244C6.31152 1 5.96096 1.3555 5.96096 1.79243V2.64082C5.96096 3.1689 5.58965 3.6239 5.07812 3.72282L3.05344 4.11394C1.78939 4.35821 0.90978 5.52343 1.00739 6.82444L1.71591 16.2678C1.74681 16.6784 2.08909 17 2.4952 17H14.1715C14.5777 17 14.92 16.6783 14.9508 16.2678L15.6593 6.82444C15.7569 5.52343 14.8773 4.35821 13.6132 4.11394ZM14.8798 6.76431L14.1715 16.2075H12.4636L12.0862 14.3764L13.4033 8.53411C13.4514 8.3208 13.3197 8.10823 13.1093 8.05951C12.8989 8.01058 12.6893 8.14421 12.6412 8.35758L11.3051 14.2843C11.2925 14.34 11.292 14.3978 11.3035 14.4537L11.665 16.2075L5.00156 16.2076L5.36307 14.4537C5.37459 14.3978 5.37407 14.34 5.36151 14.2843L4.02534 8.35758C3.97724 8.14421 3.76785 8.01069 3.55726 8.05951C3.34683 8.10828 3.21525 8.3208 3.26329 8.53411L4.58039 14.3764L4.20294 16.2076H2.49531L1.78684 6.76431C1.7194 5.86588 2.32683 5.06124 3.19972 4.89247L5.2244 4.50135C6.10411 4.33132 6.74265 3.54887 6.74265 2.64082L6.74244 1.79259L9.92408 1.79243V2.64082C9.92408 3.54892 10.5626 4.33132 11.4424 4.50135L13.467 4.89247C14.3398 5.06119 14.9473 5.86588 14.8798 6.76431Z" stroke="#848484" stroke-width="0.2" mask="url(#path-1-outside-1)"/>
<mask id="path-2-outside-2" maskUnits="userSpaceOnUse" x="7.02086" y="4.72723" width="2" height="9" fill="black">
<rect fill="white" x="7.02086" y="4.72723" width="2" height="9"/>
<path d="M8.33354 5.72723C8.16089 5.72723 8.02086 5.86921 8.02086 6.04427V12.9105C8.02086 13.0856 8.16089 13.2275 8.33354 13.2275C8.50618 13.2275 8.64621 13.0856 8.64621 12.9105V6.04427C8.64621 5.86916 8.50624 5.72723 8.33354 5.72723Z"/>
</mask>
<path d="M8.33354 5.72723C8.16089 5.72723 8.02086 5.86921 8.02086 6.04427V12.9105C8.02086 13.0856 8.16089 13.2275 8.33354 13.2275C8.50618 13.2275 8.64621 13.0856 8.64621 12.9105V6.04427C8.64621 5.86916 8.50624 5.72723 8.33354 5.72723Z" fill="#848484"/>
<path d="M8.33354 5.72723C8.16089 5.72723 8.02086 5.86921 8.02086 6.04427V12.9105C8.02086 13.0856 8.16089 13.2275 8.33354 13.2275C8.50618 13.2275 8.64621 13.0856 8.64621 12.9105V6.04427C8.64621 5.86916 8.50624 5.72723 8.33354 5.72723Z" stroke="#848484" stroke-width="0.2" mask="url(#path-2-outside-2)"/>
</svg>
