<svg width="12" height="18" viewBox="0 0 12 18" fill="none" xmlns="http://www.w3.org/2000/svg">
<mask id="path-1-outside-1" maskUnits="userSpaceOnUse" x="3.49214" y="14.9549" width="5" height="3" fill="black">
<rect fill="white" x="3.49214" y="14.9549" width="5" height="3"/>
<path d="M7.31193 15.9774C7.15225 15.9132 6.97076 15.991 6.90672 16.1512C6.85322 16.2851 6.71753 16.375 6.56913 16.375H5.43069C5.2823 16.375 5.14661 16.2851 5.09311 16.1512C5.02907 15.991 4.84767 15.9133 4.6879 15.9774C4.52816 16.0417 4.45056 16.2236 4.5146 16.3838C4.66427 16.7581 5.02383 17 5.43069 17H6.56913C6.976 17 7.33555 16.7581 7.4852 16.3838C7.54927 16.2236 7.47167 16.0417 7.31193 15.9774Z"/>
</mask>
<path d="M7.31193 15.9774C7.15225 15.9132 6.97076 15.991 6.90672 16.1512C6.85322 16.2851 6.71753 16.375 6.56913 16.375H5.43069C5.2823 16.375 5.14661 16.2851 5.09311 16.1512C5.02907 15.991 4.84767 15.9133 4.6879 15.9774C4.52816 16.0417 4.45056 16.2236 4.5146 16.3838C4.66427 16.7581 5.02383 17 5.43069 17H6.56913C6.976 17 7.33555 16.7581 7.4852 16.3838C7.54927 16.2236 7.47167 16.0417 7.31193 15.9774Z" fill="#848484"/>
<path d="M7.31193 15.9774C7.15225 15.9132 6.97076 15.991 6.90672 16.1512C6.85322 16.2851 6.71753 16.375 6.56913 16.375H5.43069C5.2823 16.375 5.14661 16.2851 5.09311 16.1512C5.02907 15.991 4.84767 15.9133 4.6879 15.9774C4.52816 16.0417 4.45056 16.2236 4.5146 16.3838C4.66427 16.7581 5.02383 17 5.43069 17H6.56913C6.976 17 7.33555 16.7581 7.4852 16.3838C7.54927 16.2236 7.47167 16.0417 7.31193 15.9774Z" stroke="#848484" stroke-width="0.4" mask="url(#path-1-outside-1)"/>
<mask id="path-2-outside-2" maskUnits="userSpaceOnUse" x="0" y="0" width="12" height="18" fill="black">
<rect fill="white" width="12" height="18"/>
<path d="M10.9717 14.3674C10.8871 13.9298 10.6182 13.5509 10.2339 13.3272C10.3038 13.2699 10.3693 13.2066 10.4292 13.1369C10.7243 12.793 10.855 12.3385 10.7876 11.8899C10.6783 11.1611 10.3689 10.48 9.89305 9.92045C9.53674 9.50149 9.09877 9.16387 8.60861 8.92662C9.20847 8.28494 9.57644 7.42276 9.57644 6.47593C9.57641 4.83739 8.47489 3.45194 6.97543 3.0251C7.17967 2.78057 7.29111 2.47508 7.29111 2.15227C7.29114 1.5169 6.77564 1 6.14207 1C6.14204 1 6.14201 1 6.14198 1C5.88622 1 5.64667 1.08341 5.46752 1.23481C5.26951 1.40212 5.16047 1.63727 5.16044 1.89693C5.16044 2.06949 5.29996 2.20942 5.47207 2.20942C5.64415 2.20942 5.7837 2.06952 5.7837 1.89693C5.7837 1.82258 5.81243 1.76062 5.86914 1.71268C5.93608 1.65612 6.03297 1.62496 6.14201 1.62496H6.14204C6.43198 1.62496 6.66788 1.86146 6.66788 2.1522C6.66788 2.34914 6.59141 2.53426 6.45255 2.67351C6.31368 2.81273 6.12911 2.88941 5.93278 2.88941C5.93275 2.88941 5.93275 2.88941 5.93272 2.88941C5.92508 2.88941 5.9176 2.89001 5.91012 2.89057C3.9794 2.93857 2.42346 4.52846 2.42343 6.4759C2.42343 7.42273 2.7914 8.28491 3.39126 8.92659C2.90113 9.16384 2.46317 9.50143 2.10685 9.92042C1.63096 10.48 1.32161 11.161 1.21222 11.8899C1.14491 12.3385 1.27558 12.793 1.57072 13.1368C1.63055 13.2066 1.69612 13.2699 1.76602 13.3271C1.38169 13.5509 1.11278 13.9297 1.02818 14.3674C0.943319 14.8061 1.0522 15.2596 1.32684 15.6116L1.99419 16.4667C2.26382 16.8122 2.67339 16.998 3.08882 16.998C3.32466 16.998 3.56244 16.9381 3.77752 16.8136C4.37152 16.4697 4.62606 15.7293 4.36962 15.0915L3.96478 14.0844C3.93773 14.0171 3.90576 13.9526 3.87008 13.8906H6.15575C6.32786 13.8906 6.46738 13.7506 6.46738 13.5781C6.46738 13.4055 6.32786 13.2656 6.15575 13.2656H3.27767V12.6068C3.27767 12.5219 3.34648 12.453 3.43108 12.453H8.56882C8.65339 12.453 8.72223 12.5219 8.72223 12.6068V13.3088C8.41303 13.4788 8.16894 13.7514 8.03506 14.0844L7.63022 15.0914C7.37378 15.7293 7.62832 16.4697 8.22232 16.8136C8.43744 16.9381 8.67512 16.998 8.91102 16.998C9.32642 16.998 9.73606 16.8122 10.0057 16.4667L10.673 15.6116C10.9477 15.2596 11.0566 14.8061 10.9717 14.3674ZM3.04666 6.47593C3.04669 4.84298 4.37155 3.51447 5.99994 3.51444C7.62832 3.51447 8.95318 4.84298 8.95321 6.47593C8.95321 8.10888 7.62838 9.4374 5.99994 9.43743C4.37152 9.4374 3.04666 8.10888 3.04666 6.47593ZM3.3868 14.3181L3.79164 15.3252C3.93265 15.676 3.79261 16.0832 3.46592 16.2724C3.13928 16.4616 2.71755 16.3796 2.48504 16.0816L1.81769 15.2265C1.6543 15.0171 1.58954 14.7474 1.64003 14.4864C1.69051 14.2254 1.85116 13.9995 2.08076 13.8665C2.31034 13.7336 2.58579 13.7071 2.83643 13.7937C3.08708 13.8804 3.28767 14.0715 3.3868 14.3181ZM8.57088 11.203C8.39876 11.203 8.25925 11.3429 8.25925 11.5155V11.828H3.74268V11.5155C3.74268 11.3429 3.60317 11.203 3.43105 11.203C3.25894 11.203 3.11942 11.3429 3.11942 11.5155V11.8936C2.84591 12.0143 2.65438 12.2885 2.65438 12.6068V13.0481C2.41838 13.0244 2.1994 12.9113 2.04306 12.7291C1.86646 12.5234 1.78827 12.2514 1.82853 11.9829C2.00694 10.7938 2.79761 9.81123 3.9076 9.38274C4.49633 9.81005 5.21924 10.0624 5.99994 10.0624C6.78063 10.0624 7.50355 9.81005 8.09228 9.38274C9.20227 9.81123 9.99293 10.7938 10.1713 11.9829C10.2116 12.2514 10.1334 12.5234 9.95678 12.7291C9.80047 12.9113 9.58146 13.0244 9.34546 13.0481V12.6068C9.34546 12.2893 9.1549 12.0157 8.8825 11.8946V11.5155C8.8825 11.3429 8.74299 11.203 8.57088 11.203ZM10.1822 15.2264L9.51486 16.0816C9.28236 16.3795 8.86069 16.4615 8.53398 16.2724C8.20727 16.0832 8.06725 15.676 8.20829 15.3251L8.61313 14.318C8.71226 14.0714 8.91286 13.8803 9.1635 13.7937C9.26057 13.7601 9.36135 13.7435 9.46176 13.7435C9.6206 13.7435 9.7785 13.7851 9.91917 13.8665C10.1488 13.9994 10.3094 14.2254 10.3599 14.4864C10.4103 14.7474 10.3456 15.0171 10.1822 15.2264Z"/>
</mask>
<path d="M10.9717 14.3674C10.8871 13.9298 10.6182 13.5509 10.2339 13.3272C10.3038 13.2699 10.3693 13.2066 10.4292 13.1369C10.7243 12.793 10.855 12.3385 10.7876 11.8899C10.6783 11.1611 10.3689 10.48 9.89305 9.92045C9.53674 9.50149 9.09877 9.16387 8.60861 8.92662C9.20847 8.28494 9.57644 7.42276 9.57644 6.47593C9.57641 4.83739 8.47489 3.45194 6.97543 3.0251C7.17967 2.78057 7.29111 2.47508 7.29111 2.15227C7.29114 1.5169 6.77564 1 6.14207 1C6.14204 1 6.14201 1 6.14198 1C5.88622 1 5.64667 1.08341 5.46752 1.23481C5.26951 1.40212 5.16047 1.63727 5.16044 1.89693C5.16044 2.06949 5.29996 2.20942 5.47207 2.20942C5.64415 2.20942 5.7837 2.06952 5.7837 1.89693C5.7837 1.82258 5.81243 1.76062 5.86914 1.71268C5.93608 1.65612 6.03297 1.62496 6.14201 1.62496H6.14204C6.43198 1.62496 6.66788 1.86146 6.66788 2.1522C6.66788 2.34914 6.59141 2.53426 6.45255 2.67351C6.31368 2.81273 6.12911 2.88941 5.93278 2.88941C5.93275 2.88941 5.93275 2.88941 5.93272 2.88941C5.92508 2.88941 5.9176 2.89001 5.91012 2.89057C3.9794 2.93857 2.42346 4.52846 2.42343 6.4759C2.42343 7.42273 2.7914 8.28491 3.39126 8.92659C2.90113 9.16384 2.46317 9.50143 2.10685 9.92042C1.63096 10.48 1.32161 11.161 1.21222 11.8899C1.14491 12.3385 1.27558 12.793 1.57072 13.1368C1.63055 13.2066 1.69612 13.2699 1.76602 13.3271C1.38169 13.5509 1.11278 13.9297 1.02818 14.3674C0.943319 14.8061 1.0522 15.2596 1.32684 15.6116L1.99419 16.4667C2.26382 16.8122 2.67339 16.998 3.08882 16.998C3.32466 16.998 3.56244 16.9381 3.77752 16.8136C4.37152 16.4697 4.62606 15.7293 4.36962 15.0915L3.96478 14.0844C3.93773 14.0171 3.90576 13.9526 3.87008 13.8906H6.15575C6.32786 13.8906 6.46738 13.7506 6.46738 13.5781C6.46738 13.4055 6.32786 13.2656 6.15575 13.2656H3.27767V12.6068C3.27767 12.5219 3.34648 12.453 3.43108 12.453H8.56882C8.65339 12.453 8.72223 12.5219 8.72223 12.6068V13.3088C8.41303 13.4788 8.16894 13.7514 8.03506 14.0844L7.63022 15.0914C7.37378 15.7293 7.62832 16.4697 8.22232 16.8136C8.43744 16.9381 8.67512 16.998 8.91102 16.998C9.32642 16.998 9.73606 16.8122 10.0057 16.4667L10.673 15.6116C10.9477 15.2596 11.0566 14.8061 10.9717 14.3674ZM3.04666 6.47593C3.04669 4.84298 4.37155 3.51447 5.99994 3.51444C7.62832 3.51447 8.95318 4.84298 8.95321 6.47593C8.95321 8.10888 7.62838 9.4374 5.99994 9.43743C4.37152 9.4374 3.04666 8.10888 3.04666 6.47593ZM3.3868 14.3181L3.79164 15.3252C3.93265 15.676 3.79261 16.0832 3.46592 16.2724C3.13928 16.4616 2.71755 16.3796 2.48504 16.0816L1.81769 15.2265C1.6543 15.0171 1.58954 14.7474 1.64003 14.4864C1.69051 14.2254 1.85116 13.9995 2.08076 13.8665C2.31034 13.7336 2.58579 13.7071 2.83643 13.7937C3.08708 13.8804 3.28767 14.0715 3.3868 14.3181ZM8.57088 11.203C8.39876 11.203 8.25925 11.3429 8.25925 11.5155V11.828H3.74268V11.5155C3.74268 11.3429 3.60317 11.203 3.43105 11.203C3.25894 11.203 3.11942 11.3429 3.11942 11.5155V11.8936C2.84591 12.0143 2.65438 12.2885 2.65438 12.6068V13.0481C2.41838 13.0244 2.1994 12.9113 2.04306 12.7291C1.86646 12.5234 1.78827 12.2514 1.82853 11.9829C2.00694 10.7938 2.79761 9.81123 3.9076 9.38274C4.49633 9.81005 5.21924 10.0624 5.99994 10.0624C6.78063 10.0624 7.50355 9.81005 8.09228 9.38274C9.20227 9.81123 9.99293 10.7938 10.1713 11.9829C10.2116 12.2514 10.1334 12.5234 9.95678 12.7291C9.80047 12.9113 9.58146 13.0244 9.34546 13.0481V12.6068C9.34546 12.2893 9.1549 12.0157 8.8825 11.8946V11.5155C8.8825 11.3429 8.74299 11.203 8.57088 11.203ZM10.1822 15.2264L9.51486 16.0816C9.28236 16.3795 8.86069 16.4615 8.53398 16.2724C8.20727 16.0832 8.06725 15.676 8.20829 15.3251L8.61313 14.318C8.71226 14.0714 8.91286 13.8803 9.1635 13.7937C9.26057 13.7601 9.36135 13.7435 9.46176 13.7435C9.6206 13.7435 9.7785 13.7851 9.91917 13.8665C10.1488 13.9994 10.3094 14.2254 10.3599 14.4864C10.4103 14.7474 10.3456 15.0171 10.1822 15.2264Z" fill="#848484"/>
<path d="M10.9717 14.3674C10.8871 13.9298 10.6182 13.5509 10.2339 13.3272C10.3038 13.2699 10.3693 13.2066 10.4292 13.1369C10.7243 12.793 10.855 12.3385 10.7876 11.8899C10.6783 11.1611 10.3689 10.48 9.89305 9.92045C9.53674 9.50149 9.09877 9.16387 8.60861 8.92662C9.20847 8.28494 9.57644 7.42276 9.57644 6.47593C9.57641 4.83739 8.47489 3.45194 6.97543 3.0251C7.17967 2.78057 7.29111 2.47508 7.29111 2.15227C7.29114 1.5169 6.77564 1 6.14207 1C6.14204 1 6.14201 1 6.14198 1C5.88622 1 5.64667 1.08341 5.46752 1.23481C5.26951 1.40212 5.16047 1.63727 5.16044 1.89693C5.16044 2.06949 5.29996 2.20942 5.47207 2.20942C5.64415 2.20942 5.7837 2.06952 5.7837 1.89693C5.7837 1.82258 5.81243 1.76062 5.86914 1.71268C5.93608 1.65612 6.03297 1.62496 6.14201 1.62496H6.14204C6.43198 1.62496 6.66788 1.86146 6.66788 2.1522C6.66788 2.34914 6.59141 2.53426 6.45255 2.67351C6.31368 2.81273 6.12911 2.88941 5.93278 2.88941C5.93275 2.88941 5.93275 2.88941 5.93272 2.88941C5.92508 2.88941 5.9176 2.89001 5.91012 2.89057C3.9794 2.93857 2.42346 4.52846 2.42343 6.4759C2.42343 7.42273 2.7914 8.28491 3.39126 8.92659C2.90113 9.16384 2.46317 9.50143 2.10685 9.92042C1.63096 10.48 1.32161 11.161 1.21222 11.8899C1.14491 12.3385 1.27558 12.793 1.57072 13.1368C1.63055 13.2066 1.69612 13.2699 1.76602 13.3271C1.38169 13.5509 1.11278 13.9297 1.02818 14.3674C0.943319 14.8061 1.0522 15.2596 1.32684 15.6116L1.99419 16.4667C2.26382 16.8122 2.67339 16.998 3.08882 16.998C3.32466 16.998 3.56244 16.9381 3.77752 16.8136C4.37152 16.4697 4.62606 15.7293 4.36962 15.0915L3.96478 14.0844C3.93773 14.0171 3.90576 13.9526 3.87008 13.8906H6.15575C6.32786 13.8906 6.46738 13.7506 6.46738 13.5781C6.46738 13.4055 6.32786 13.2656 6.15575 13.2656H3.27767V12.6068C3.27767 12.5219 3.34648 12.453 3.43108 12.453H8.56882C8.65339 12.453 8.72223 12.5219 8.72223 12.6068V13.3088C8.41303 13.4788 8.16894 13.7514 8.03506 14.0844L7.63022 15.0914C7.37378 15.7293 7.62832 16.4697 8.22232 16.8136C8.43744 16.9381 8.67512 16.998 8.91102 16.998C9.32642 16.998 9.73606 16.8122 10.0057 16.4667L10.673 15.6116C10.9477 15.2596 11.0566 14.8061 10.9717 14.3674ZM3.04666 6.47593C3.04669 4.84298 4.37155 3.51447 5.99994 3.51444C7.62832 3.51447 8.95318 4.84298 8.95321 6.47593C8.95321 8.10888 7.62838 9.4374 5.99994 9.43743C4.37152 9.4374 3.04666 8.10888 3.04666 6.47593ZM3.3868 14.3181L3.79164 15.3252C3.93265 15.676 3.79261 16.0832 3.46592 16.2724C3.13928 16.4616 2.71755 16.3796 2.48504 16.0816L1.81769 15.2265C1.6543 15.0171 1.58954 14.7474 1.64003 14.4864C1.69051 14.2254 1.85116 13.9995 2.08076 13.8665C2.31034 13.7336 2.58579 13.7071 2.83643 13.7937C3.08708 13.8804 3.28767 14.0715 3.3868 14.3181ZM8.57088 11.203C8.39876 11.203 8.25925 11.3429 8.25925 11.5155V11.828H3.74268V11.5155C3.74268 11.3429 3.60317 11.203 3.43105 11.203C3.25894 11.203 3.11942 11.3429 3.11942 11.5155V11.8936C2.84591 12.0143 2.65438 12.2885 2.65438 12.6068V13.0481C2.41838 13.0244 2.1994 12.9113 2.04306 12.7291C1.86646 12.5234 1.78827 12.2514 1.82853 11.9829C2.00694 10.7938 2.79761 9.81123 3.9076 9.38274C4.49633 9.81005 5.21924 10.0624 5.99994 10.0624C6.78063 10.0624 7.50355 9.81005 8.09228 9.38274C9.20227 9.81123 9.99293 10.7938 10.1713 11.9829C10.2116 12.2514 10.1334 12.5234 9.95678 12.7291C9.80047 12.9113 9.58146 13.0244 9.34546 13.0481V12.6068C9.34546 12.2893 9.1549 12.0157 8.8825 11.8946V11.5155C8.8825 11.3429 8.74299 11.203 8.57088 11.203ZM10.1822 15.2264L9.51486 16.0816C9.28236 16.3795 8.86069 16.4615 8.53398 16.2724C8.20727 16.0832 8.06725 15.676 8.20829 15.3251L8.61313 14.318C8.71226 14.0714 8.91286 13.8803 9.1635 13.7937C9.26057 13.7601 9.36135 13.7435 9.46176 13.7435C9.6206 13.7435 9.7785 13.7851 9.91917 13.8665C10.1488 13.9994 10.3094 14.2254 10.3599 14.4864C10.4103 14.7474 10.3456 15.0171 10.1822 15.2264Z" stroke="#848484" stroke-width="0.4" mask="url(#path-2-outside-2)"/>
<mask id="path-3-outside-3" maskUnits="userSpaceOnUse" x="6.08195" y="12.2655" width="2" height="2" fill="black">
<rect fill="white" x="6.08195" y="12.2655" width="2" height="2"/>
<path d="M7.61391 13.357C7.55594 13.2989 7.47554 13.2655 7.39358 13.2655C7.31163 13.2655 7.23122 13.2989 7.17326 13.357C7.1153 13.4152 7.08195 13.4958 7.08195 13.578C7.08195 13.6605 7.1153 13.7408 7.17326 13.7989C7.23122 13.8573 7.31163 13.8905 7.39358 13.8905C7.47554 13.8905 7.55594 13.8573 7.61391 13.7989C7.67187 13.7408 7.70521 13.6602 7.70521 13.578C7.70521 13.4958 7.67187 13.4152 7.61391 13.357Z"/>
</mask>
<path d="M7.61391 13.357C7.55594 13.2989 7.47554 13.2655 7.39358 13.2655C7.31163 13.2655 7.23122 13.2989 7.17326 13.357C7.1153 13.4152 7.08195 13.4958 7.08195 13.578C7.08195 13.6605 7.1153 13.7408 7.17326 13.7989C7.23122 13.8573 7.31163 13.8905 7.39358 13.8905C7.47554 13.8905 7.55594 13.8573 7.61391 13.7989C7.67187 13.7408 7.70521 13.6602 7.70521 13.578C7.70521 13.4958 7.67187 13.4152 7.61391 13.357Z" fill="#848484"/>
<path d="M7.61391 13.357C7.55594 13.2989 7.47554 13.2655 7.39358 13.2655C7.31163 13.2655 7.23122 13.2989 7.17326 13.357C7.1153 13.4152 7.08195 13.4958 7.08195 13.578C7.08195 13.6605 7.1153 13.7408 7.17326 13.7989C7.23122 13.8573 7.31163 13.8905 7.39358 13.8905C7.47554 13.8905 7.55594 13.8573 7.61391 13.7989C7.67187 13.7408 7.70521 13.6602 7.70521 13.578C7.70521 13.4958 7.67187 13.4152 7.61391 13.357Z" stroke="#848484" stroke-width="0.4" mask="url(#path-3-outside-3)"/>
<mask id="path-4-outside-4" maskUnits="userSpaceOnUse" x="3.09631" y="5.04226" width="3" height="2" fill="black">
<rect fill="white" x="3.09631" y="5.04226" width="3" height="2"/>
<path d="M5.21298 6.25485C4.9303 5.97139 4.47033 5.97139 4.18759 6.25485C4.0659 6.37688 4.06587 6.57472 4.18759 6.69678C4.30928 6.81884 4.50661 6.81884 4.6283 6.69682C4.66797 6.65703 4.73257 6.65703 4.77227 6.69682C4.83313 6.75781 4.91288 6.78834 4.99262 6.78834C5.07237 6.78834 5.15215 6.75781 5.21298 6.69682C5.33467 6.57479 5.33467 6.37691 5.21298 6.25485Z"/>
</mask>
<path d="M5.21298 6.25485C4.9303 5.97139 4.47033 5.97139 4.18759 6.25485C4.0659 6.37688 4.06587 6.57472 4.18759 6.69678C4.30928 6.81884 4.50661 6.81884 4.6283 6.69682C4.66797 6.65703 4.73257 6.65703 4.77227 6.69682C4.83313 6.75781 4.91288 6.78834 4.99262 6.78834C5.07237 6.78834 5.15215 6.75781 5.21298 6.69682C5.33467 6.57479 5.33467 6.37691 5.21298 6.25485Z" fill="#848484"/>
<path d="M5.21298 6.25485C4.9303 5.97139 4.47033 5.97139 4.18759 6.25485C4.0659 6.37688 4.06587 6.57472 4.18759 6.69678C4.30928 6.81884 4.50661 6.81884 4.6283 6.69682C4.66797 6.65703 4.73257 6.65703 4.77227 6.69682C4.83313 6.75781 4.91288 6.78834 4.99262 6.78834C5.07237 6.78834 5.15215 6.75781 5.21298 6.69682C5.33467 6.57479 5.33467 6.37691 5.21298 6.25485Z" stroke="#848484" stroke-width="0.4" mask="url(#path-4-outside-4)"/>
<mask id="path-5-outside-5" maskUnits="userSpaceOnUse" x="4.02534" y="6.47355" width="4" height="3" fill="black">
<rect fill="white" x="4.02534" y="6.47355" width="4" height="3"/>
<path d="M6.85909 7.54328C6.7254 7.4346 6.52917 7.45525 6.42079 7.58928C6.31723 7.7174 6.16382 7.79087 5.99993 7.79087C5.83605 7.79087 5.6826 7.71737 5.57908 7.58928C5.47072 7.45519 5.27449 7.43466 5.14077 7.54328C5.00705 7.65194 4.98652 7.84871 5.0949 7.98281C5.31734 8.25802 5.64723 8.41583 5.99993 8.41583C6.35263 8.41583 6.68255 8.25799 6.90496 7.98281C7.01335 7.84871 6.99281 7.65194 6.85909 7.54328Z"/>
</mask>
<path d="M6.85909 7.54328C6.7254 7.4346 6.52917 7.45525 6.42079 7.58928C6.31723 7.7174 6.16382 7.79087 5.99993 7.79087C5.83605 7.79087 5.6826 7.71737 5.57908 7.58928C5.47072 7.45519 5.27449 7.43466 5.14077 7.54328C5.00705 7.65194 4.98652 7.84871 5.0949 7.98281C5.31734 8.25802 5.64723 8.41583 5.99993 8.41583C6.35263 8.41583 6.68255 8.25799 6.90496 7.98281C7.01335 7.84871 6.99281 7.65194 6.85909 7.54328Z" fill="#848484"/>
<path d="M6.85909 7.54328C6.7254 7.4346 6.52917 7.45525 6.42079 7.58928C6.31723 7.7174 6.16382 7.79087 5.99993 7.79087C5.83605 7.79087 5.6826 7.71737 5.57908 7.58928C5.47072 7.45519 5.27449 7.43466 5.14077 7.54328C5.00705 7.65194 4.98652 7.84871 5.0949 7.98281C5.31734 8.25802 5.64723 8.41583 5.99993 8.41583C6.35263 8.41583 6.68255 8.25799 6.90496 7.98281C7.01335 7.84871 6.99281 7.65194 6.85909 7.54328Z" stroke="#848484" stroke-width="0.4" mask="url(#path-5-outside-5)"/>
<mask id="path-6-outside-6" maskUnits="userSpaceOnUse" x="5.69655" y="5.04226" width="3" height="2" fill="black">
<rect fill="white" x="5.69655" y="5.04226" width="3" height="2"/>
<path d="M7.81321 6.25483C7.5305 5.9714 7.0705 5.9714 6.78782 6.25483C6.66613 6.37686 6.66613 6.57473 6.78782 6.69679C6.84865 6.75782 6.92843 6.78832 7.00817 6.78832C7.08792 6.78832 7.1677 6.75779 7.22853 6.69679C7.2682 6.65704 7.3328 6.65698 7.3725 6.69679C7.49419 6.81885 7.69152 6.81882 7.81321 6.69676C7.9349 6.57473 7.9349 6.37689 7.81321 6.25483Z"/>
</mask>
<path d="M7.81321 6.25483C7.5305 5.9714 7.0705 5.9714 6.78782 6.25483C6.66613 6.37686 6.66613 6.57473 6.78782 6.69679C6.84865 6.75782 6.92843 6.78832 7.00817 6.78832C7.08792 6.78832 7.1677 6.75779 7.22853 6.69679C7.2682 6.65704 7.3328 6.65698 7.3725 6.69679C7.49419 6.81885 7.69152 6.81882 7.81321 6.69676C7.9349 6.57473 7.9349 6.37689 7.81321 6.25483Z" fill="#848484"/>
<path d="M7.81321 6.25483C7.5305 5.9714 7.0705 5.9714 6.78782 6.25483C6.66613 6.37686 6.66613 6.57473 6.78782 6.69679C6.84865 6.75782 6.92843 6.78832 7.00817 6.78832C7.08792 6.78832 7.1677 6.75779 7.22853 6.69679C7.2682 6.65704 7.3328 6.65698 7.3725 6.69679C7.49419 6.81885 7.69152 6.81882 7.81321 6.69676C7.9349 6.57473 7.9349 6.37689 7.81321 6.25483Z" stroke="#848484" stroke-width="0.4" mask="url(#path-6-outside-6)"/>
</svg>
