<svg width="18" height="18" viewBox="0 0 18 18" fill="none" xmlns="http://www.w3.org/2000/svg">
<mask id="path-1-outside-1" maskUnits="userSpaceOnUse" x="0" y="0" width="18" height="18" fill="black">
<rect fill="white" width="18" height="18"/>
<path d="M16.9077 4.41213L13.5879 1.09228C13.5288 1.03322 13.4487 1 13.3651 1C13.2815 1 13.2014 1.03322 13.1423 1.09228L10.9515 3.28316L10.9514 3.28319C10.9514 3.28319 10.9514 3.28322 10.9514 3.28322L8.76059 5.47403C8.76059 5.47403 8.76056 5.47406 8.76053 5.47409C8.76053 5.47409 8.7605 5.47412 8.76047 5.47416L2.18769 12.0469C2.18769 12.0469 2.18769 12.047 2.18766 12.047L1.09225 13.1423C1.03322 13.2014 1 13.2816 1 13.3651C1 13.4486 1.03322 13.5288 1.09228 13.5878L4.41216 16.9077C4.47369 16.9692 4.55431 17 4.63491 17C4.71553 17 4.79612 16.9692 4.85766 16.9077L16.9077 4.85766C16.9668 4.79859 17 4.71844 17 4.63491C17 4.55134 16.9668 4.47122 16.9077 4.41213ZM4.63491 16.2394L1.76059 13.3651L2.41041 12.7153L2.96231 13.2672C3.02384 13.3287 3.10447 13.3595 3.18506 13.3595C3.26569 13.3595 3.34628 13.3287 3.40781 13.2672C3.53084 13.1442 3.53084 12.9447 3.40781 12.8216L2.85594 12.2697L3.50594 11.6197L4.51259 12.6264C4.57413 12.6879 4.65475 12.7187 4.73534 12.7187C4.81597 12.7187 4.89656 12.6879 4.95809 12.6264C5.08112 12.5033 5.08112 12.3039 4.95809 12.1808L3.95144 11.1742L4.60141 10.5242L5.15331 11.0761C5.21484 11.1377 5.29547 11.1684 5.37606 11.1684C5.45666 11.1684 5.53728 11.1377 5.59881 11.0761C5.72184 10.9531 5.72184 10.7536 5.59881 10.6306L5.04691 10.0787L5.69675 9.42881L6.70353 10.4356C6.76506 10.4972 6.84569 10.5279 6.92628 10.5279C7.00691 10.5279 7.08753 10.4971 7.14903 10.4356C7.27206 10.3126 7.27206 10.1131 7.14903 9.99009L6.14222 8.98328L6.79209 8.33341L7.344 8.88509C7.4055 8.94659 7.48612 8.97731 7.56669 8.97731C7.64734 8.97731 7.72797 8.94653 7.78947 8.885C7.91247 8.76194 7.91244 8.56247 7.78937 8.43944L7.23756 7.88788L7.88766 7.23778L8.89447 8.24459C8.956 8.30612 9.03662 8.33687 9.11722 8.33687C9.19781 8.33687 9.27847 8.30612 9.33997 8.24459C9.463 8.12156 9.463 7.92209 9.33997 7.79903L8.33316 6.79222L8.98297 6.14241L9.53487 6.69431C9.59641 6.75584 9.67703 6.78659 9.75762 6.78659C9.83822 6.78659 9.91888 6.75581 9.98038 6.69431C10.1034 6.57128 10.1034 6.37181 9.98038 6.24878L9.42869 5.69688L10.0785 5.04703L11.0853 6.05384C11.1468 6.11538 11.2275 6.14612 11.3081 6.14612C11.3887 6.14612 11.4693 6.11534 11.5308 6.05384C11.6538 5.93081 11.6538 5.73134 11.5308 5.60831L10.524 4.60147L11.174 3.9515L11.7257 4.50325C11.7872 4.56478 11.8679 4.59553 11.9485 4.59553C12.0291 4.59553 12.1097 4.56478 12.1712 4.50325C12.2943 4.38022 12.2943 4.18075 12.1712 4.05769L11.6195 3.50594L12.2695 2.85594L13.2763 3.86275C13.3379 3.92428 13.4185 3.95503 13.4991 3.95503C13.5797 3.95503 13.6603 3.92425 13.7218 3.86275C13.8449 3.73972 13.8449 3.54025 13.7218 3.41722L12.7153 2.41041L13.3651 1.76059L16.2394 4.63491L4.63491 16.2394Z"/>
</mask>
<path d="M16.9077 4.41213L13.5879 1.09228C13.5288 1.03322 13.4487 1 13.3651 1C13.2815 1 13.2014 1.03322 13.1423 1.09228L10.9515 3.28316L10.9514 3.28319C10.9514 3.28319 10.9514 3.28322 10.9514 3.28322L8.76059 5.47403C8.76059 5.47403 8.76056 5.47406 8.76053 5.47409C8.76053 5.47409 8.7605 5.47412 8.76047 5.47416L2.18769 12.0469C2.18769 12.0469 2.18769 12.047 2.18766 12.047L1.09225 13.1423C1.03322 13.2014 1 13.2816 1 13.3651C1 13.4486 1.03322 13.5288 1.09228 13.5878L4.41216 16.9077C4.47369 16.9692 4.55431 17 4.63491 17C4.71553 17 4.79612 16.9692 4.85766 16.9077L16.9077 4.85766C16.9668 4.79859 17 4.71844 17 4.63491C17 4.55134 16.9668 4.47122 16.9077 4.41213ZM4.63491 16.2394L1.76059 13.3651L2.41041 12.7153L2.96231 13.2672C3.02384 13.3287 3.10447 13.3595 3.18506 13.3595C3.26569 13.3595 3.34628 13.3287 3.40781 13.2672C3.53084 13.1442 3.53084 12.9447 3.40781 12.8216L2.85594 12.2697L3.50594 11.6197L4.51259 12.6264C4.57413 12.6879 4.65475 12.7187 4.73534 12.7187C4.81597 12.7187 4.89656 12.6879 4.95809 12.6264C5.08112 12.5033 5.08112 12.3039 4.95809 12.1808L3.95144 11.1742L4.60141 10.5242L5.15331 11.0761C5.21484 11.1377 5.29547 11.1684 5.37606 11.1684C5.45666 11.1684 5.53728 11.1377 5.59881 11.0761C5.72184 10.9531 5.72184 10.7536 5.59881 10.6306L5.04691 10.0787L5.69675 9.42881L6.70353 10.4356C6.76506 10.4972 6.84569 10.5279 6.92628 10.5279C7.00691 10.5279 7.08753 10.4971 7.14903 10.4356C7.27206 10.3126 7.27206 10.1131 7.14903 9.99009L6.14222 8.98328L6.79209 8.33341L7.344 8.88509C7.4055 8.94659 7.48612 8.97731 7.56669 8.97731C7.64734 8.97731 7.72797 8.94653 7.78947 8.885C7.91247 8.76194 7.91244 8.56247 7.78937 8.43944L7.23756 7.88788L7.88766 7.23778L8.89447 8.24459C8.956 8.30612 9.03662 8.33687 9.11722 8.33687C9.19781 8.33687 9.27847 8.30612 9.33997 8.24459C9.463 8.12156 9.463 7.92209 9.33997 7.79903L8.33316 6.79222L8.98297 6.14241L9.53487 6.69431C9.59641 6.75584 9.67703 6.78659 9.75762 6.78659C9.83822 6.78659 9.91888 6.75581 9.98038 6.69431C10.1034 6.57128 10.1034 6.37181 9.98038 6.24878L9.42869 5.69688L10.0785 5.04703L11.0853 6.05384C11.1468 6.11538 11.2275 6.14612 11.3081 6.14612C11.3887 6.14612 11.4693 6.11534 11.5308 6.05384C11.6538 5.93081 11.6538 5.73134 11.5308 5.60831L10.524 4.60147L11.174 3.9515L11.7257 4.50325C11.7872 4.56478 11.8679 4.59553 11.9485 4.59553C12.0291 4.59553 12.1097 4.56478 12.1712 4.50325C12.2943 4.38022 12.2943 4.18075 12.1712 4.05769L11.6195 3.50594L12.2695 2.85594L13.2763 3.86275C13.3379 3.92428 13.4185 3.95503 13.4991 3.95503C13.5797 3.95503 13.6603 3.92425 13.7218 3.86275C13.8449 3.73972 13.8449 3.54025 13.7218 3.41722L12.7153 2.41041L13.3651 1.76059L16.2394 4.63491L4.63491 16.2394Z" fill="white"/>
<path d="M16.9077 4.41213L13.5879 1.09228C13.5288 1.03322 13.4487 1 13.3651 1C13.2815 1 13.2014 1.03322 13.1423 1.09228L10.9515 3.28316L10.9514 3.28319C10.9514 3.28319 10.9514 3.28322 10.9514 3.28322L8.76059 5.47403C8.76059 5.47403 8.76056 5.47406 8.76053 5.47409C8.76053 5.47409 8.7605 5.47412 8.76047 5.47416L2.18769 12.0469C2.18769 12.0469 2.18769 12.047 2.18766 12.047L1.09225 13.1423C1.03322 13.2014 1 13.2816 1 13.3651C1 13.4486 1.03322 13.5288 1.09228 13.5878L4.41216 16.9077C4.47369 16.9692 4.55431 17 4.63491 17C4.71553 17 4.79612 16.9692 4.85766 16.9077L16.9077 4.85766C16.9668 4.79859 17 4.71844 17 4.63491C17 4.55134 16.9668 4.47122 16.9077 4.41213ZM4.63491 16.2394L1.76059 13.3651L2.41041 12.7153L2.96231 13.2672C3.02384 13.3287 3.10447 13.3595 3.18506 13.3595C3.26569 13.3595 3.34628 13.3287 3.40781 13.2672C3.53084 13.1442 3.53084 12.9447 3.40781 12.8216L2.85594 12.2697L3.50594 11.6197L4.51259 12.6264C4.57413 12.6879 4.65475 12.7187 4.73534 12.7187C4.81597 12.7187 4.89656 12.6879 4.95809 12.6264C5.08112 12.5033 5.08112 12.3039 4.95809 12.1808L3.95144 11.1742L4.60141 10.5242L5.15331 11.0761C5.21484 11.1377 5.29547 11.1684 5.37606 11.1684C5.45666 11.1684 5.53728 11.1377 5.59881 11.0761C5.72184 10.9531 5.72184 10.7536 5.59881 10.6306L5.04691 10.0787L5.69675 9.42881L6.70353 10.4356C6.76506 10.4972 6.84569 10.5279 6.92628 10.5279C7.00691 10.5279 7.08753 10.4971 7.14903 10.4356C7.27206 10.3126 7.27206 10.1131 7.14903 9.99009L6.14222 8.98328L6.79209 8.33341L7.344 8.88509C7.4055 8.94659 7.48612 8.97731 7.56669 8.97731C7.64734 8.97731 7.72797 8.94653 7.78947 8.885C7.91247 8.76194 7.91244 8.56247 7.78937 8.43944L7.23756 7.88788L7.88766 7.23778L8.89447 8.24459C8.956 8.30612 9.03662 8.33687 9.11722 8.33687C9.19781 8.33687 9.27847 8.30612 9.33997 8.24459C9.463 8.12156 9.463 7.92209 9.33997 7.79903L8.33316 6.79222L8.98297 6.14241L9.53487 6.69431C9.59641 6.75584 9.67703 6.78659 9.75762 6.78659C9.83822 6.78659 9.91888 6.75581 9.98038 6.69431C10.1034 6.57128 10.1034 6.37181 9.98038 6.24878L9.42869 5.69688L10.0785 5.04703L11.0853 6.05384C11.1468 6.11538 11.2275 6.14612 11.3081 6.14612C11.3887 6.14612 11.4693 6.11534 11.5308 6.05384C11.6538 5.93081 11.6538 5.73134 11.5308 5.60831L10.524 4.60147L11.174 3.9515L11.7257 4.50325C11.7872 4.56478 11.8679 4.59553 11.9485 4.59553C12.0291 4.59553 12.1097 4.56478 12.1712 4.50325C12.2943 4.38022 12.2943 4.18075 12.1712 4.05769L11.6195 3.50594L12.2695 2.85594L13.2763 3.86275C13.3379 3.92428 13.4185 3.95503 13.4991 3.95503C13.5797 3.95503 13.6603 3.92425 13.7218 3.86275C13.8449 3.73972 13.8449 3.54025 13.7218 3.41722L12.7153 2.41041L13.3651 1.76059L16.2394 4.63491L4.63491 16.2394Z" stroke="white" stroke-width="0.4" mask="url(#path-1-outside-1)"/>
<mask id="path-2-outside-2" maskUnits="userSpaceOnUse" x="3.18684" y="11.9258" width="4" height="4" fill="black">
<rect fill="white" x="3.18684" y="11.9258" width="4" height="4"/>
<path d="M6.35974 13.0181C6.23668 12.895 6.03727 12.895 5.91418 13.0181L4.27912 14.6531C4.15609 14.7761 4.15609 14.9756 4.27912 15.0987C4.34065 15.1602 4.42127 15.191 4.50187 15.191C4.58249 15.191 4.66312 15.1602 4.72462 15.0987L6.35971 13.4636C6.48277 13.3406 6.48277 13.1411 6.35974 13.0181Z"/>
</mask>
<path d="M6.35974 13.0181C6.23668 12.895 6.03727 12.895 5.91418 13.0181L4.27912 14.6531C4.15609 14.7761 4.15609 14.9756 4.27912 15.0987C4.34065 15.1602 4.42127 15.191 4.50187 15.191C4.58249 15.191 4.66312 15.1602 4.72462 15.0987L6.35971 13.4636C6.48277 13.3406 6.48277 13.1411 6.35974 13.0181Z" fill="white"/>
<path d="M6.35974 13.0181C6.23668 12.895 6.03727 12.895 5.91418 13.0181L4.27912 14.6531C4.15609 14.7761 4.15609 14.9756 4.27912 15.0987C4.34065 15.1602 4.42127 15.191 4.50187 15.191C4.58249 15.191 4.66312 15.1602 4.72462 15.0987L6.35971 13.4636C6.48277 13.3406 6.48277 13.1411 6.35974 13.0181Z" stroke="white" stroke-width="0.4" mask="url(#path-2-outside-2)"/>
<mask id="path-3-outside-3" maskUnits="userSpaceOnUse" x="6" y="10.6667" width="2" height="2" fill="black">
<rect fill="white" x="6" y="10.6667" width="2" height="2"/>
<path d="M7.30431 11.6667C6.89891 11.6667 6.89822 12.2967 7.30431 12.2967C7.70972 12.2967 7.71037 11.6667 7.30431 11.6667Z"/>
</mask>
<path d="M7.30431 11.6667C6.89891 11.6667 6.89822 12.2967 7.30431 12.2967C7.70972 12.2967 7.71037 11.6667 7.30431 11.6667Z" fill="white"/>
<path d="M7.30431 11.6667C6.89891 11.6667 6.89822 12.2967 7.30431 12.2967C7.70972 12.2967 7.71037 11.6667 7.30431 11.6667Z" stroke="white" stroke-width="0.4" mask="url(#path-3-outside-3)"/>
</svg>
